<?xml version="1.0" encoding="iso-8859-1"?>
<!-- Uploaded to: SVG Repo, www.svgrepo.com, Generator: SVG Repo Mixer Tools -->
<svg version="1.1" id="Layer_1" xmlns="http://www.w3.org/2000/svg" xmlns:xlink="http://www.w3.org/1999/xlink" 
	 viewBox="0 0 392.533 392.533" xml:space="preserve">
<path style="fill:#FFFFFF;" d="M359.822,112.614H32.711c-6.012,0-10.925,4.848-10.925,10.925v193.552
	c0,6.012,4.848,10.925,10.925,10.925h327.111c6.012,0,10.925-4.848,10.925-10.925V123.539
	C370.747,117.527,365.834,112.614,359.822,112.614z"/>
<g>
	<polygon style="fill:#FFC10D;" points="301.253,90.828 287.741,64.646 211.265,64.646 197.754,90.828 	"/>
	<rect x="43.572" y="134.465" style="fill:#FFC10D;" width="305.325" height="171.766"/>
</g>
<path style="fill:#56ACE0;" d="M249.535,152.889c-37.172,0-67.491,30.19-67.491,67.491c0,37.172,30.19,67.491,67.491,67.491
	c37.172,0,67.491-30.19,67.491-67.491C316.962,183.208,286.707,152.889,249.535,152.889z"/>
<path style="fill:#FFFFFF;" d="M249.535,196.461c-13.123,0-23.79,10.667-23.79,23.79c0,13.123,10.667,23.79,23.79,23.79
	c13.123,0,23.79-10.667,23.79-23.79C273.325,207.257,262.659,196.461,249.535,196.461z"/>
<polygon style="fill:#56ACE0;" points="96.065,64.646 64.646,64.646 64.646,74.731 64.646,74.731 96.065,74.731 96.065,74.731 "/>
<g>
	<path style="fill:#194F82;" d="M359.822,90.828h-34.004l-21.721-42.085c-1.875-3.62-5.624-5.883-9.632-5.883h-89.859
		c-4.073,0-7.822,2.327-9.632,5.883l-21.721,42.085H32.711C14.675,90.828,0,105.503,0,123.539v193.552
		c0,18.036,14.675,32.711,32.711,32.711h327.111c18.036,0,32.711-14.675,32.711-32.711V123.539
		C392.533,105.568,377.859,90.828,359.822,90.828z M211.265,64.646h76.477l13.511,26.182H197.754L211.265,64.646z M359.822,328.016
		H32.711c-6.012,0-10.925-4.848-10.925-10.925V123.539c0-6.012,4.848-10.925,10.925-10.925h327.111
		c6.012,0,10.925,4.848,10.925,10.925v193.552h0.065C370.747,323.168,365.899,328.016,359.822,328.016z"/>
	<path style="fill:#194F82;" d="M84.364,134.982c-5.301,2.844-7.24,9.503-4.396,14.739c23.725,43.895,19.265,108.347,0.129,140.929
		c-3.038,5.172-1.293,11.895,3.943,14.933c5.301,3.232,12.347,1.099,14.933-3.943c21.915-37.624,28.186-110.352,0.129-162.263
		C96.259,134.077,89.729,132.008,84.364,134.982z"/>
	<path style="fill:#194F82;" d="M249.535,131.103c-49.196,0-89.277,40.016-89.277,89.277s40.016,89.277,89.277,89.277
		s89.277-40.016,89.277-89.277S298.731,131.103,249.535,131.103z M249.535,287.806c-37.172,0-67.491-30.19-67.491-67.491
		c0-37.172,30.19-67.491,67.491-67.491c37.172,0,67.491,30.19,67.491,67.491C316.962,257.552,286.707,287.806,249.535,287.806z"/>
	<path style="fill:#194F82;" d="M249.535,174.675c-25.212,0-45.576,20.493-45.576,45.64c0,25.212,20.493,45.64,45.576,45.64
		c25.212,0,45.576-20.493,45.576-45.64S274.683,174.675,249.535,174.675z M249.535,244.17c-13.123,0-23.79-10.667-23.79-23.79
		c0-13.123,10.667-23.79,23.79-23.79c13.123,0,23.79,10.667,23.79,23.79C273.325,233.503,262.659,244.17,249.535,244.17z"/>
	<path style="fill:#194F82;" d="M53.786,85.527c6.012,0,10.925-4.848,10.925-10.925v-10.02H96v10.02
		c0,6.012,4.848,10.925,10.925,10.925c6.012,0,10.925-4.848,10.925-10.925V53.657c0.065-5.947-4.784-10.925-10.796-10.925H53.786
		c-6.012,0-10.925,4.848-10.925,10.925v20.945C42.861,80.679,47.774,85.527,53.786,85.527z"/>
</g>
</svg>